<svg width="57" height="57" viewBox="0 0 57 57" fill="none" xmlns="http://www.w3.org/2000/svg">
<path d="M44.8499 5.51074H23.1865C22.6099 5.51074 22.1428 5.9778 22.1428 6.55445C22.1428 7.13077 22.6099 7.59815 23.1865 7.59815H44.8499C45.4262 7.59815 45.8936 7.13077 45.8936 6.55445C45.8936 5.9778 45.4262 5.51074 44.8499 5.51074Z" fill="white"/>
<path d="M11.866 5.51074C11.5917 5.51074 11.3223 5.62229 11.1282 5.81635C10.9341 6.01042 10.8223 6.28015 10.8223 6.55445C10.8223 6.82874 10.9341 7.09815 11.1282 7.29221C11.3223 7.48628 11.5917 7.59815 11.866 7.59815C12.1403 7.59815 12.41 7.48628 12.6041 7.29221C12.7981 7.09815 12.9097 6.82874 12.9097 6.55445C12.9097 6.28015 12.7981 6.01042 12.6041 5.81635C12.41 5.62229 12.1403 5.51074 11.866 5.51074Z" fill="white"/>
<path d="M8.0304 5.51074C7.7561 5.51074 7.48669 5.62229 7.29263 5.81635C7.09857 6.01042 6.98669 6.28015 6.98669 6.55445C6.98669 6.82874 7.09857 7.09815 7.29263 7.29221C7.48669 7.48628 7.7561 7.59815 8.0304 7.59815C8.3047 7.59815 8.57443 7.48628 8.76849 7.29221C8.96255 7.09815 9.0741 6.82874 9.0741 6.55445C9.0741 6.28015 8.96255 6.01042 8.76849 5.81635C8.57443 5.62229 8.3047 5.51074 8.0304 5.51074Z" fill="white"/>
<path d="M15.7015 5.51074C15.4259 5.51074 15.1578 5.62229 14.9638 5.81635C14.7684 6.01042 14.6578 6.28015 14.6578 6.55445C14.6578 6.82874 14.7684 7.09815 14.9638 7.29221C15.1578 7.48628 15.4259 7.59815 15.7015 7.59815C15.9758 7.59815 16.2443 7.48628 16.4396 7.29221C16.6337 7.09815 16.7452 6.82874 16.7452 6.55445C16.7452 6.28015 16.6337 6.01042 16.4396 5.81635C16.2443 5.62229 15.9758 5.51074 15.7015 5.51074Z" fill="white"/>
<path d="M22.1164 41.0935C21.9223 40.8991 21.6526 40.7876 21.3783 40.7876C21.104 40.7876 20.8346 40.8991 20.6405 41.0935C20.4465 41.2876 20.3346 41.5567 20.3346 41.8313C20.3346 42.1059 20.4465 42.375 20.6405 42.5691C20.8346 42.7631 21.104 42.875 21.3783 42.875C21.6526 42.875 21.9223 42.7631 22.1164 42.5691C22.3105 42.375 22.422 42.1059 22.422 41.8313C22.422 41.5557 22.3105 41.2876 22.1164 41.0935Z" fill="white"/>
<path d="M51.0682 29.951C51.0698 29.9272 51.0714 29.9041 51.0714 29.8799V5.30201C51.0714 3.34507 49.4798 1.75342 47.5228 1.75342H5.35755C3.40093 1.75342 1.80896 3.34507 1.80896 5.30201V39.3264C1.80896 41.2834 3.40093 42.875 5.35755 42.875H17.3601C17.9368 42.875 18.4038 42.4076 18.4038 41.8313C18.4038 41.255 17.9368 40.7876 17.3601 40.7876H5.35755C4.55194 40.7876 3.89637 40.1323 3.89637 39.3264V11.3552C3.90061 11.3552 3.90419 11.3555 3.90778 11.3555H48.984V27.8623L43.1657 22.044C42.4364 21.3147 41.4667 20.9132 40.4354 20.9132C39.4038 20.9132 38.4338 21.3147 37.7045 22.044C37.2166 22.5316 36.8758 23.1272 36.7029 23.7769C36.1452 23.4739 35.5176 23.3131 34.865 23.3131C33.8334 23.3131 32.864 23.7152 32.1347 24.4445C31.3497 25.2289 30.9739 26.2703 31.0072 27.301C30.9648 27.2994 30.9224 27.2984 30.8797 27.2984C29.8484 27.2984 28.8784 27.7005 28.1491 28.4298C27.7055 28.8734 27.3829 29.4063 27.1983 29.9879L22.0992 24.8891C20.5937 23.3832 18.1439 23.3832 16.638 24.8891C15.1325 26.3946 15.1325 28.8444 16.638 30.3499L30.0053 43.7171L27.2688 43.0534C25.14 42.5368 23.0271 43.7895 22.4606 45.9063C21.9208 47.9197 23.0398 50.0338 25.0082 50.7204L35.4462 54.36C37.0323 54.9128 38.6879 55.191 40.3484 55.191C41.4615 55.191 42.576 55.0661 43.6732 54.815C46.4074 54.1891 48.9002 52.8104 50.8832 50.8274C56.6285 45.0821 56.6898 35.7729 51.0682 29.951ZM3.90778 9.26808C3.90419 9.26808 3.90061 9.26841 3.89637 9.26841V5.30201C3.89637 4.4964 4.55194 3.84082 5.35755 3.84082H47.5232C48.3288 3.84082 48.9843 4.4964 48.9843 5.30201V9.26808H3.90778ZM49.4074 49.3515C45.9547 52.8042 40.7443 53.9963 36.1338 52.3887L25.6951 48.7494C24.7538 48.421 24.2186 47.4096 24.4766 46.4467C24.7065 45.5877 25.4684 45.0263 26.3158 45.0263C26.4678 45.0263 26.6224 45.0443 26.7766 45.0818L33.1263 46.6222C33.5806 46.7331 34.0532 46.5273 34.2818 46.1193C34.5111 45.7116 34.441 45.2012 34.1103 44.8701L18.1139 28.874C17.4221 28.1823 17.4221 27.0567 18.1139 26.3649C18.806 25.6735 19.9316 25.6735 20.6233 26.3649L28.1494 33.891C28.1494 33.8913 28.1497 33.8913 28.1497 33.8917L33.564 39.3059C33.7678 39.5094 34.0349 39.6111 34.3021 39.6111C34.5688 39.6111 34.8363 39.5094 35.0401 39.3059C35.4475 38.8982 35.4475 38.2374 35.0401 37.8297L29.6259 32.4155C29.6256 32.4151 29.6256 32.4151 29.6253 32.4151C29.29 32.0798 29.1057 31.6343 29.1057 31.1601C29.1057 30.6865 29.29 30.2406 29.6253 29.9057C29.9602 29.5704 30.4061 29.3858 30.88 29.3858C31.3539 29.3858 31.7994 29.5704 32.1347 29.9057L37.8311 35.6017C38.0349 35.8055 38.3017 35.9073 38.5688 35.9073C38.836 35.9073 39.1031 35.8055 39.3069 35.6017C39.7146 35.1943 39.7146 34.5335 39.3069 34.1258L33.6109 28.4295C32.9191 27.7374 32.9191 26.6118 33.6109 25.9204C33.9459 25.5854 34.3917 25.4005 34.8653 25.4005C35.3392 25.4005 35.7848 25.5854 36.1197 25.9204L37.7042 27.5048C37.7045 27.5048 37.7045 27.5052 37.7048 27.5052L41.8682 31.6686C42.0721 31.8724 42.3392 31.9742 42.6063 31.9742C42.8735 31.9742 43.1409 31.8724 43.3441 31.6686C43.7518 31.2612 43.7518 30.6004 43.3441 30.1927L39.1807 26.029C38.8457 25.694 38.6611 25.2485 38.6611 24.7743C38.6611 24.3003 38.8457 23.8551 39.1807 23.5198C39.516 23.1849 39.9615 23 40.4354 23C40.9093 23 41.3552 23.1849 41.6902 23.5198L49.408 31.2371C54.4015 36.2315 54.4015 44.3571 49.4074 49.3515Z" fill="white"/>
<path d="M20.0464 20.7443V18.4971C20.0464 17.9208 19.5793 17.4534 19.0027 17.4534C18.4264 17.4534 17.959 17.9208 17.959 18.4971V20.7443C17.959 21.3209 18.4264 21.788 19.0027 21.788C19.5793 21.788 20.0464 21.3209 20.0464 20.7443Z" fill="white"/>
<path d="M10.1328 26.3231C9.55649 26.3231 9.08911 26.7905 9.08911 27.3668C9.08911 27.9435 9.55649 28.4105 10.1328 28.4105H12.38C12.9567 28.4105 13.4237 27.9435 13.4237 27.3668C13.4237 26.7905 12.9567 26.3231 12.38 26.3231H10.1328Z" fill="white"/>
<path d="M14.4194 23.8274C14.6866 23.8274 14.9534 23.7253 15.1572 23.5215C15.5649 23.1141 15.5649 22.4533 15.1572 22.0456L11.2573 18.1457C10.8496 17.738 10.1889 17.738 9.78148 18.1457C9.37378 18.5528 9.37378 19.2139 9.78148 19.6216L13.6813 23.5215C13.8852 23.7253 14.1523 23.8274 14.4194 23.8274Z" fill="white"/>
</svg>
