<svg width="36" height="35" viewBox="0 0 36 35" fill="none" xmlns="http://www.w3.org/2000/svg">
<g clip-path="url(#clip0_302_333)">
<path d="M21.4453 17.5C21.4453 19.35 19.9028 20.8496 18 20.8496C16.0972 20.8496 14.5547 19.35 14.5547 17.5C14.5547 15.65 16.0972 14.1504 18 14.1504C19.9028 14.1504 21.4453 15.65 21.4453 17.5Z" fill="white"/>
<path d="M26.0573 11.5734C25.8916 11.1371 25.6274 10.7421 25.2841 10.418C24.9507 10.0842 24.5447 9.82729 24.0956 9.66627C23.7314 9.52875 23.1843 9.36506 22.1766 9.32047C21.0865 9.27213 20.7596 9.26172 17.9999 9.26172C15.2398 9.26172 14.913 9.27187 13.8232 9.3202C12.8154 9.36506 12.268 9.52875 11.9041 9.66627C11.455 9.82729 11.0488 10.0842 10.7157 10.418C10.3723 10.7421 10.1081 11.1368 9.94223 11.5734C9.80078 11.9275 9.63242 12.4597 9.58655 13.4394C9.53683 14.499 9.52612 14.8167 9.52612 17.5001C9.52612 20.1832 9.53683 20.501 9.58655 21.5608C9.63242 22.5405 9.80078 23.0724 9.94223 23.4265C10.1081 23.8631 10.3721 24.2578 10.7154 24.582C11.0488 24.9157 11.4548 25.1726 11.9038 25.3336C12.268 25.4714 12.8154 25.6351 13.8232 25.6797C14.913 25.7281 15.2396 25.7382 17.9996 25.7382C20.7599 25.7382 21.0868 25.7281 22.1763 25.6797C23.1841 25.6351 23.7314 25.4714 24.0956 25.3336C24.9971 24.9956 25.7095 24.3029 26.0573 23.4265C26.1987 23.0724 26.3671 22.5405 26.4132 21.5608C26.4629 20.501 26.4734 20.1832 26.4734 17.5001C26.4734 14.8167 26.4629 14.499 26.4132 13.4394C26.3673 12.4597 26.199 11.9275 26.0573 11.5734ZM17.9999 22.6599C15.0685 22.6599 12.6921 20.3498 12.6921 17.4998C12.6921 14.6498 15.0685 12.3398 17.9999 12.3398C20.931 12.3398 23.3074 14.6498 23.3074 17.4998C23.3074 20.3498 20.931 22.6599 17.9999 22.6599ZM23.5172 13.3417C22.8322 13.3417 22.2769 12.8017 22.2769 12.1357C22.2769 11.4698 22.8322 10.9298 23.5172 10.9298C24.2022 10.9298 24.7576 11.4698 24.7576 12.1357C24.7573 12.8017 24.2022 13.3417 23.5172 13.3417Z" fill="white"/>
<path d="M18 0C8.06039 0 0 7.83649 0 17.5C0 27.1635 8.06039 35 18 35C27.9396 35 36 27.1635 36 17.5C36 7.83649 27.9396 0 18 0ZM28.2736 21.643C28.2236 22.7127 28.0486 23.443 27.7932 24.0823C27.2563 25.4321 26.1587 26.4991 24.7703 27.0212C24.1131 27.2695 23.3616 27.4393 22.2616 27.4882C21.1594 27.5371 20.8073 27.5488 18.0003 27.5488C15.193 27.5488 14.8412 27.5371 13.7387 27.4882C12.6387 27.4393 11.8872 27.2695 11.2299 27.0212C10.54 26.7688 9.91544 26.3734 9.39908 25.862C8.87338 25.3603 8.46661 24.7528 8.20706 24.0823C7.95163 23.4433 7.77667 22.7127 7.72668 21.6432C7.67587 20.5714 7.66406 20.229 7.66406 17.5C7.66406 14.771 7.67587 14.4286 7.72641 13.357C7.7764 12.2873 7.95108 11.557 8.20651 10.9177C8.46606 10.2472 8.87311 9.63974 9.39908 9.13799C9.91516 8.62663 10.54 8.23116 11.2297 7.97882C11.8872 7.73048 12.6384 7.56065 13.7387 7.51179C14.8409 7.46292 15.193 7.45117 18 7.45117C20.807 7.45117 21.1591 7.46292 22.2613 7.51205C23.3616 7.56065 24.1128 7.73048 24.7703 7.97855C25.46 8.2309 26.0848 8.62663 26.6012 9.13799C27.1269 9.64001 27.5339 10.2472 27.7932 10.9177C28.0489 11.557 28.2236 12.2873 28.2739 13.357C28.3241 14.4286 28.3359 14.771 28.3359 17.5C28.3359 20.229 28.3241 20.5714 28.2736 21.643Z" fill="white"/>
</g>
<defs>
<clipPath id="clip0_302_333">
<rect width="36" height="35" fill="white"/>
</clipPath>
</defs>
</svg>
