<svg width="225" height="243" viewBox="0 0 225 243" fill="none" xmlns="http://www.w3.org/2000/svg">
<path d="M177.26 16.8207H156.996V7.87835C156.996 3.52674 153.7 0 149.634 0C145.568 0 142.272 3.52674 142.272 7.87835V16.8207H82.3965V7.87835C82.3965 3.52674 79.1011 0 75.0349 0C70.9687 0 67.6733 3.52674 67.6733 7.87835V16.8207H47.4093C21.2247 16.8207 0 39.5352 0 67.5576V79.8115C0 84.1751 3.29541 87.7018 7.37279 87.7018C11.4502 87.7018 14.7456 84.1751 14.7456 79.8115V67.5576C14.7456 48.2503 29.3683 32.6013 47.4093 32.6013H67.6733V46.9831C67.6733 51.3347 70.9687 54.8615 75.0349 54.8615C79.1011 54.8615 82.3965 51.3347 82.3965 46.9831V32.6013H142.272V46.9831C142.272 51.3347 145.568 54.8615 149.634 54.8615C153.7 54.8615 156.996 51.3347 156.996 46.9831V32.6013H177.26C195.301 32.6013 209.923 48.2503 209.923 67.5576V191.459C209.923 210.766 195.301 226.416 177.26 226.416H47.4651C29.4241 226.416 14.8014 210.766 14.8014 191.459V169.044C14.8014 149.736 29.4241 134.087 47.4651 134.087H137.737C141.814 134.087 145.11 130.56 145.11 126.197C145.11 121.833 141.814 118.307 137.737 118.307H47.4651C21.2805 118.307 0.0558493 141.021 0.0558493 169.044V191.459C0.0558493 219.482 21.2805 242.196 47.4651 242.196H177.26C203.444 242.196 224.669 219.482 224.669 191.459V67.5576C224.669 39.5352 203.444 16.8207 177.26 16.8207Z" fill="#226FE2"/>
<path d="M70.6674 193.406C77.4958 190.379 80.7385 182.001 77.9101 174.694C75.0816 167.386 67.2531 163.916 60.4247 166.943C53.5962 169.969 50.3535 178.347 53.182 185.655C56.0104 192.963 63.8389 196.433 70.6674 193.406Z" fill="#226FE2"/>
<path d="M116.773 193.69C123.748 191.072 127.418 182.899 124.972 175.435C122.525 167.971 114.888 164.043 107.913 166.661C100.939 169.279 97.2685 177.452 99.715 184.916C102.161 192.38 109.799 196.309 116.773 193.69Z" fill="#226FE2"/>
<path d="M164.26 193.405C171.088 190.378 174.331 182 171.502 174.692C168.674 167.384 160.846 163.914 154.017 166.941C147.189 169.968 143.946 178.346 146.774 185.654C149.603 192.962 157.431 196.432 164.26 193.405Z" fill="#226FE2"/>
</svg>
