<svg width="118" height="118" viewBox="0 0 118 118" fill="none" xmlns="http://www.w3.org/2000/svg">
<g filter="url(#filter0_d_58_6)">
<circle cx="59" cy="55" r="55" fill="#DFDFDF" fill-opacity="0.7" shape-rendering="crispEdges"/>
</g>
<path d="M44.396 84.2V92H43.364L37.736 85.58V90.584L39.44 91.22L39.056 92H35.576V91.328L36.704 90.38V84.08L35.372 83.348L35.768 82.568H37.88L43.364 88.808V83.972L41.66 83.348L42.056 82.568H45.536V83.24L44.396 84.2Z" fill="#22303E"/>
<path d="M61.192 87.328C62.112 87.328 62.924 87.532 63.628 87.94C64.332 88.348 64.876 88.912 65.26 89.632C65.644 90.352 65.836 91.168 65.836 92.08C65.836 93.016 65.544 93.88 64.96 94.672C64.376 95.464 63.652 96.092 62.788 96.556C61.932 97.012 61.116 97.24 60.34 97.24C59.42 97.24 58.608 97.04 57.904 96.64C57.208 96.232 56.664 95.668 56.272 94.948C55.888 94.228 55.696 93.412 55.696 92.5C55.696 91.564 55.984 90.7 56.56 89.908C57.144 89.108 57.868 88.48 58.732 88.024C59.596 87.56 60.416 87.328 61.192 87.328ZM60.496 88.708C60.048 88.708 59.636 88.848 59.26 89.128C58.892 89.408 58.6 89.792 58.384 90.28C58.168 90.768 58.06 91.316 58.06 91.924C58.06 92.644 58.168 93.304 58.384 93.904C58.608 94.496 58.94 94.972 59.38 95.332C59.828 95.684 60.38 95.86 61.036 95.86C61.476 95.86 61.88 95.72 62.248 95.44C62.624 95.16 62.92 94.776 63.136 94.288C63.352 93.8 63.46 93.252 63.46 92.644C63.46 91.916 63.352 91.256 63.136 90.664C62.92 90.072 62.588 89.6 62.14 89.248C61.7 88.888 61.152 88.708 60.496 88.708Z" fill="#22303E"/>
<path d="M83.6 85.652L82.94 85.916L81.248 83.48H80.132V90.872L81.476 91.22L81.08 92H76.832V91.328L77.96 90.44V83.48H76.892L75.2 85.916L74.54 85.652V82.352L75.404 82.568H82.736L83.6 82.352V85.652Z" fill="#22303E"/>
<path d="M98.668 77H94.204V76.328L95.512 75.548L94.78 73.76H91.072L90.412 75.368L92.248 76.22L91.864 77H87.988V76.328L89.284 75.356L92.356 67.952L94.432 67.34L97.84 75.608L99.064 76.22L98.668 77ZM92.944 69.236L91.456 72.836H94.408L92.944 69.236Z" fill="#22303E"/>
<path d="M30.668 77H26.204V76.328L27.512 75.548L26.78 73.76H23.072L22.412 75.368L24.248 76.22L23.864 77H19.988V76.328L21.284 75.356L24.356 67.952L26.432 67.34L29.84 75.608L31.064 76.22L30.668 77ZM24.944 69.236L23.456 72.836H26.408L24.944 69.236Z" fill="#22303E"/>
<line x1="47.0348" y1="65.0827" x2="58.1121" y2="30.9903" stroke="#22303E" stroke-width="3"/>
<line x1="46" y1="53.5" x2="57.0454" y2="53.5" stroke="#22303E" stroke-width="3"/>
<line x1="57.8635" y1="30.9704" x2="65.6811" y2="55.0305" stroke="#22303E" stroke-width="3"/>
<defs>
<filter id="filter0_d_58_6" x="0" y="0" width="118" height="118" filterUnits="userSpaceOnUse" color-interpolation-filters="sRGB">
<feFlood flood-opacity="0" result="BackgroundImageFix"/>
<feColorMatrix in="SourceAlpha" type="matrix" values="0 0 0 0 0 0 0 0 0 0 0 0 0 0 0 0 0 0 127 0" result="hardAlpha"/>
<feOffset dy="4"/>
<feGaussianBlur stdDeviation="2"/>
<feComposite in2="hardAlpha" operator="out"/>
<feColorMatrix type="matrix" values="0 0 0 0 0 0 0 0 0 0 0 0 0 0 0 0 0 0 0.25 0"/>
<feBlend mode="normal" in2="BackgroundImageFix" result="effect1_dropShadow_58_6"/>
<feBlend mode="normal" in="SourceGraphic" in2="effect1_dropShadow_58_6" result="shape"/>
</filter>
</defs>
</svg>
