<svg width="632" height="180" viewBox="0 0 632 180" fill="none" xmlns="http://www.w3.org/2000/svg">
<path d="M258.428 79.274C253.34 79.274 253.048 74.9559 252.765 70.9209C248.827 74.7612 243.545 77.7343 236.156 77.7343H231.935C218.786 77.7343 212.256 70.6289 212.256 62.1785V60.161C212.256 49.0205 220.317 43.4547 233.855 43.4547C247.394 43.4547 250.756 42.7822 252.384 39.1366V38.1721C252.384 34.3318 249.986 30.872 241.156 30.872H235.492C222.343 30.872 228.582 39.1277 219.361 39.1277C216.291 39.1277 214.079 37.4996 214.079 35.4821C214.079 35.2874 214.176 35.1016 214.176 34.9069C216.194 26.7485 223.299 21.1739 235.395 21.1739H241.731C256.897 21.1739 264.1 27.4121 264.1 38.3579V69.3724C264.1 71.3899 265.64 73.018 265.64 74.7524C265.64 78.0175 261.03 79.2652 258.437 79.2652L258.428 79.274ZM252.376 47.3039C249.686 50.4717 243.545 51.4362 234.519 51.4362C226.069 51.4362 223.963 54.312 223.963 58.8248V60.2671C223.963 65.1604 228.856 67.4699 234.519 67.4699H238.165C245.173 67.4699 250.641 64.3021 252.376 60.1698V47.3039Z" fill="black"/>
<path d="M314.493 78.221C310.945 78.221 308.635 76.2035 308.635 73.9029V44.1449C308.635 35.5087 303.45 32.1462 298.362 32.1462H296.822C288.664 32.1462 284.434 37.0395 284.434 42.6141V73.9117C284.434 76.3097 282.134 78.2299 278.674 78.2299C275.214 78.2299 272.913 76.3097 272.913 73.9117V24.7576C272.913 22.3596 275.214 20.4394 278.674 20.4394C282.134 20.4394 284.434 22.3596 284.434 24.7576V28.7925C287.602 23.9966 292.495 21.1119 298.928 21.1119H300.654C310.449 21.1119 320.333 27.2529 320.333 41.6585V73.9206C320.333 76.2212 318.033 78.2387 314.475 78.2387L314.493 78.221Z" fill="black"/>
<path d="M353.383 78.6015H352.33C337.836 78.6015 327.465 69.1954 327.465 50.8522V48.64C327.465 31.3586 337.261 20.7049 352.33 20.7049H353.383C367.691 20.7049 378.247 30.403 378.247 48.64V50.8522C378.247 69.5759 367.594 78.6015 353.383 78.6015ZM366.337 48.8436C366.337 35.9776 360.577 31.3675 353.277 31.3675H352.409C344.631 31.3675 339.446 36.075 339.446 48.8436V50.7637C339.446 62.2846 345.207 67.3726 352.409 67.3726H353.277C360.09 67.3726 366.337 62.6651 366.337 50.7637V48.8436Z" fill="black"/>
<path d="M418.181 31.0755H405.607V57.5772C405.607 65.2578 407.05 67.2753 413.288 67.2753H415.014C417.031 67.2753 418.659 69.2928 418.659 72.2659C418.659 75.2391 417.031 77.3539 415.014 77.3539H410.209C398.015 77.3539 393.892 71.3014 393.892 58.055V31.0755H386.017C384.096 31.0755 382.468 29.1553 382.468 26.2707C382.468 23.386 384.096 21.5632 386.017 21.5632H393.892V10.4228C393.892 8.12214 396.192 6.10464 399.75 6.10464C403.307 6.10464 405.607 8.12214 405.607 10.4228V21.5632H418.181C420.102 21.5632 421.73 23.4834 421.73 26.2707C421.73 29.058 420.102 31.0755 418.181 31.0755Z" fill="black"/>
<path d="M474.352 79.274C469.264 79.274 468.972 74.9559 468.689 70.9209C464.752 74.7612 459.469 77.7343 452.08 77.7343H447.86C434.711 77.7343 428.18 70.6289 428.18 62.1785V60.161C428.18 49.0205 436.241 43.4547 449.78 43.4547C463.318 43.4547 466.681 42.7822 468.309 39.1366V38.1721C468.309 34.3318 465.911 30.872 457.08 30.872H451.417C438.268 30.872 444.506 39.1277 435.286 39.1277C432.215 39.1277 430.003 37.4996 430.003 35.4821C430.003 35.2874 430.1 35.1016 430.1 34.9069C432.118 26.7485 439.223 21.1739 451.319 21.1739H457.655C472.822 21.1739 480.024 27.4121 480.024 38.3579V69.3724C480.024 71.3899 481.564 73.018 481.564 74.7524C481.564 78.0175 476.954 79.2652 474.361 79.2652L474.352 79.274ZM468.3 47.3039C465.61 50.4717 459.469 51.4362 450.443 51.4362C441.993 51.4362 439.887 54.312 439.887 58.8248V60.2671C439.887 65.1604 444.78 67.4699 450.443 67.4699H454.089C461.097 67.4699 466.566 64.3021 468.3 60.1698V47.3039Z" fill="black"/>
<path d="M246.615 120.818H242.97C233.847 120.818 227.803 126.198 226.263 133.012V160.947C226.263 163.345 223.865 165.362 220.308 165.362C216.751 165.362 214.353 163.345 214.353 160.947V111.987C214.353 109.687 216.565 107.855 220.016 107.855C223.467 107.855 225.582 109.678 225.582 111.987V119.96C228.458 113.722 234.705 108.731 243.633 108.731H246.606C249.102 108.731 251.119 111.129 251.119 114.784C251.119 118.438 249.102 120.836 246.606 120.836L246.615 120.818Z" fill="black"/>
<path d="M298.654 139.737H266.587V141.082C266.587 149.63 271.675 155.195 279.16 155.195H281.656C293.469 155.195 290.487 146.364 299.512 146.364C302.583 146.364 304.795 148.09 304.795 150.01C304.795 150.391 304.698 150.683 304.6 151.063C301.813 158.266 293.947 165.274 281.85 165.274H278.877C264.764 165.274 254.782 154.328 254.782 139.931V134.268C254.782 119.482 263.711 108.351 278.877 108.351H281.567C295.486 108.351 304.414 117.182 305.759 132.543V133.118C305.759 136.861 302.494 139.746 298.654 139.746V139.737ZM293.663 130.233C292.699 122.455 288.283 118.04 281.275 118.04H279.16C271.675 118.04 266.772 123.606 266.587 132.348H291.743C292.796 132.348 293.663 131.578 293.663 130.525V130.233Z" fill="black"/>
<path d="M338.88 165.557H334.27C321.599 165.557 314.015 159.319 312.476 150.099V149.621C312.476 147.32 314.874 145.586 318.333 145.586C327.837 145.586 321.218 155.762 335.04 155.762H338.402C347.33 155.762 349.631 151.346 349.631 148.851V148.276C349.631 143.188 347.33 140.79 338.207 140.79H334.845C321.307 140.79 313.148 134.357 313.148 125.331V124.376C313.148 115.642 320.059 107.864 335.04 107.864H339.172C350.888 107.864 358.373 113.527 360.002 121.88C360.099 122.075 360.099 122.358 360.099 122.553C360.099 124.668 357.604 126.393 354.241 126.393C345.508 126.393 350.304 117.845 338.499 117.845H336.287C327.359 117.845 325.147 120.535 325.147 124.473V125.145C325.147 128.986 328.023 130.808 335.04 130.808H339.172C354.339 130.808 361.833 137.622 361.833 147.515V148.665C361.833 157.885 352.905 165.566 338.889 165.566L338.88 165.557Z" fill="black"/>
<path d="M411.846 139.737H379.778V141.082C379.778 149.63 384.866 155.195 392.352 155.195H394.847C406.66 155.195 403.678 146.364 412.704 146.364C415.774 146.364 417.987 148.09 417.987 150.01C417.987 150.391 417.889 150.683 417.792 151.063C415.005 158.266 407.138 165.274 395.042 165.274H392.069C377.955 165.274 367.974 154.328 367.974 139.931V134.268C367.974 119.482 376.902 108.351 392.069 108.351H394.759C408.678 108.351 417.606 117.182 418.951 132.543V133.118C418.951 136.861 415.686 139.746 411.846 139.746V139.737ZM406.855 130.233C405.891 122.455 401.475 118.04 394.467 118.04H392.352C384.866 118.04 379.964 123.606 379.778 132.348H404.935C405.988 132.348 406.855 131.578 406.855 130.525V130.233Z" fill="black"/>
<path d="M459.274 120.818H455.629C446.506 120.818 440.462 126.198 438.922 133.012V160.947C438.922 163.345 436.524 165.362 432.967 165.362C429.41 165.362 427.012 163.345 427.012 160.947V111.987C427.012 109.687 429.224 107.855 432.675 107.855C436.126 107.855 438.241 109.678 438.241 111.987V119.96C441.117 113.722 447.364 108.731 456.292 108.731H459.265C461.761 108.731 463.778 111.129 463.778 114.784C463.778 118.438 461.761 120.836 459.265 120.836L459.274 120.818Z" fill="black"/>
<path d="M517.551 113.049L500.562 161.336C499.695 163.929 496.722 165.469 492.687 165.469C488.652 165.469 485.581 163.929 484.714 161.336L467.725 113.049C467.627 112.669 467.53 112.377 467.53 111.996C467.53 109.881 469.45 107.864 472.813 107.864C476.361 107.864 478.378 109.306 479.148 111.607L492.014 150.293C492.209 150.868 492.492 151.16 492.687 151.16C492.979 151.16 493.165 150.868 493.359 150.293L506.128 111.607C506.898 109.306 508.818 107.864 512.463 107.864C515.534 107.864 517.746 110.076 517.746 112.085C517.746 112.465 517.649 112.757 517.551 113.04V113.049Z" fill="black"/>
<path d="M569.59 166.424C564.502 166.424 564.21 162.106 563.927 158.071C559.989 161.911 554.707 164.885 547.318 164.885H543.097C529.948 164.885 523.418 157.779 523.418 149.329V147.311C523.418 136.171 531.479 130.605 545.018 130.605C558.556 130.605 561.918 129.932 563.547 126.287V125.322C563.547 121.482 561.149 118.022 552.318 118.022H546.654C533.505 118.022 539.744 126.278 530.523 126.278C527.453 126.278 525.241 124.65 525.241 122.632C525.241 122.438 525.338 122.252 525.338 122.057C527.356 113.899 534.461 108.324 546.557 108.324H552.893C568.059 108.324 575.262 114.562 575.262 125.508V156.523C575.262 158.54 576.802 160.168 576.802 161.903C576.802 165.168 572.192 166.415 569.599 166.415L569.59 166.424ZM563.538 134.454C560.848 137.622 554.707 138.586 545.681 138.586C537.231 138.586 535.125 141.462 535.125 145.975V147.417C535.125 152.311 540.018 154.62 545.681 154.62H549.327C556.335 154.62 561.803 151.452 563.538 147.32V134.454Z" fill="black"/>
<path d="M609.046 165.557H604.436C591.765 165.557 584.182 159.319 582.642 150.099V149.621C582.642 147.32 585.04 145.586 588.5 145.586C598.003 145.586 591.385 155.762 605.206 155.762H608.569C617.497 155.762 619.798 151.346 619.798 148.851V148.276C619.798 143.188 617.497 140.79 608.374 140.79H605.011C591.473 140.79 583.315 134.357 583.315 125.331V124.376C583.315 115.642 590.225 107.864 605.206 107.864H609.338C621.054 107.864 628.54 113.527 630.168 121.88C630.265 122.075 630.265 122.358 630.265 122.553C630.265 124.668 627.77 126.393 624.408 126.393C615.674 126.393 620.47 117.845 608.666 117.845H606.454C597.526 117.845 595.313 120.535 595.313 124.473V125.145C595.313 128.986 598.189 130.808 605.206 130.808H609.338C624.505 130.808 632 137.622 632 147.515V148.665C632 157.885 623.072 165.566 609.055 165.566L609.046 165.557Z" fill="black"/>
<path d="M140.52 13.1128H124.469V6.49398C124.469 3.27308 121.858 0.66272 118.637 0.66272C115.416 0.66272 112.806 3.27308 112.806 6.49398V13.1128H65.3774V6.49398C65.3774 3.27308 62.7671 0.66272 59.5462 0.66272C56.3253 0.66272 53.7149 3.27308 53.7149 6.49398V13.1128H37.6635C16.9223 13.1128 0.109863 29.9252 0.109863 50.6664V59.7362C0.109863 62.966 2.72021 65.5763 5.94996 65.5763C9.17972 65.5763 11.7901 62.966 11.7901 59.7362V50.6664C11.7901 36.3758 23.3729 24.793 37.6635 24.793H53.7149V35.4379C53.7149 38.6588 56.3253 41.2691 59.5462 41.2691C62.7671 41.2691 65.3774 38.6588 65.3774 35.4379V24.793H112.806V35.4379C112.806 38.6588 115.416 41.2691 118.637 41.2691C121.858 41.2691 124.469 38.6588 124.469 35.4379V24.793H140.52C154.811 24.793 166.393 36.3758 166.393 50.6664V142.374C166.393 156.664 154.811 168.247 140.52 168.247H37.7077C23.4172 168.247 11.8343 156.664 11.8343 142.374V125.782C11.8343 111.492 23.4172 99.909 37.7077 99.909H109.214C112.443 99.909 115.054 97.2987 115.054 94.0689C115.054 90.8392 112.443 88.2289 109.214 88.2289H37.7077C16.9665 88.2289 0.154102 105.041 0.154102 125.782V142.374C0.154102 163.115 16.9665 179.927 37.7077 179.927H140.52C161.261 179.927 178.074 163.115 178.074 142.374V50.6664C178.074 29.9252 161.261 13.1128 140.52 13.1128Z" fill="#226FE2"/>
<path d="M56.0866 143.815C61.4955 141.574 64.0641 135.373 61.8236 129.964C59.5832 124.556 53.3821 121.987 47.9732 124.227C42.5643 126.468 39.9957 132.669 42.2361 138.078C44.4766 143.487 50.6776 146.055 56.0866 143.815Z" fill="#226FE2"/>
<path d="M92.6076 144.025C98.1321 142.087 101.04 136.038 99.1018 130.513C97.1638 124.989 91.1143 122.081 85.5898 124.019C80.0652 125.957 77.1577 132.006 79.0956 137.531C81.0335 143.056 87.083 145.963 92.6076 144.025Z" fill="#226FE2"/>
<path d="M130.223 143.814C135.631 141.573 138.2 135.372 135.96 129.963C133.719 124.554 127.518 121.986 122.109 124.226C116.7 126.467 114.132 132.668 116.372 138.077C118.613 143.486 124.814 146.054 130.223 143.814Z" fill="#226FE2"/>
</svg>
