<svg width="95" height="96" viewBox="0 0 95 96" fill="none" xmlns="http://www.w3.org/2000/svg">
<path d="M74.697 6.95586H66.215V3.45833C66.215 1.75633 64.8357 0.376953 63.1337 0.376953C61.4317 0.376953 60.0523 1.75633 60.0523 3.45833V6.95586H34.9898V3.45833C34.9898 1.75633 33.6104 0.376953 31.9084 0.376953C30.2064 0.376953 28.8271 1.75633 28.8271 3.45833V6.95586H20.3451C9.38494 6.95586 0.500854 15.8399 0.500854 26.8001V31.5928C0.500854 33.2995 1.88023 34.6789 3.58691 34.6789C5.29359 34.6789 6.67296 33.2995 6.67296 31.5928V26.8001C6.67296 19.2486 12.7936 13.128 20.3451 13.128H28.8271V18.753C28.8271 20.455 30.2064 21.8344 31.9084 21.8344C33.6104 21.8344 34.9898 20.455 34.9898 18.753V13.128H60.0523V18.753C60.0523 20.455 61.4317 21.8344 63.1337 21.8344C64.8357 21.8344 66.215 20.455 66.215 18.753V13.128H74.697C82.2485 13.128 88.3692 19.2486 88.3692 26.8001V75.2605C88.3692 82.8119 82.2485 88.9326 74.697 88.9326H20.3685C12.817 88.9326 6.69634 82.8119 6.69634 75.2605V66.4933C6.69634 58.9418 12.817 52.8211 20.3685 52.8211H58.1539C59.8606 52.8211 61.24 51.4417 61.24 49.7351C61.24 48.0284 59.8606 46.649 58.1539 46.649H20.3685C9.40832 46.649 0.524232 55.5331 0.524232 66.4933V75.2605C0.524232 86.2206 9.40832 95.1047 20.3685 95.1047H74.697C85.6572 95.1047 94.5413 86.2206 94.5413 75.2605V26.8001C94.5413 15.8399 85.6572 6.95586 74.697 6.95586Z" fill="white"/>
<path d="M30.0802 76.0221C32.9384 74.8382 34.2957 71.5615 33.1118 68.7032C31.9279 65.845 28.6511 64.4877 25.7929 65.6716C22.9347 66.8556 21.5774 70.1324 22.7613 72.9906C23.9452 75.8488 27.222 77.2061 30.0802 76.0221Z" fill="white"/>
<path d="M49.3788 76.1332C52.2981 75.1092 53.8346 71.9124 52.8105 68.9931C51.7865 66.0738 48.5898 64.5374 45.6705 65.5615C42.7511 66.5855 41.2147 69.7822 42.2388 72.7015C43.2628 75.6208 46.4595 77.1572 49.3788 76.1332Z" fill="white"/>
<path d="M69.2557 76.0215C72.1139 74.8376 73.4712 71.5608 72.2873 68.7026C71.1033 65.8444 67.8266 64.4871 64.9683 65.671C62.1101 66.8549 60.7528 70.1317 61.9368 72.99C63.1207 75.8482 66.3974 77.2054 69.2557 76.0215Z" fill="white"/>
</svg>
