<svg width="207" height="134" viewBox="0 0 207 134" fill="none" xmlns="http://www.w3.org/2000/svg">
<rect x="0.63623" y="0.811462" width="205.796" height="132.639" rx="66.3197" fill="#1C1E24"/>
<path d="M126.506 76.2502C126.506 74.8766 125.392 73.7632 124.019 73.7632C122.645 73.7632 121.532 74.8766 121.532 76.2502V83.7111H114.071C112.697 83.7111 111.584 84.8246 111.584 86.1981C111.584 87.5717 112.697 88.6851 114.071 88.6851H121.532V96.1461C121.532 97.5196 122.645 98.6331 124.019 98.6331C125.392 98.6331 126.506 97.5196 126.506 96.1461V88.6851H133.967C135.34 88.6851 136.454 87.5717 136.454 86.1981C136.454 84.8246 135.34 83.7111 133.967 83.7111H126.506V76.2502Z" fill="#DEFF00"/>
<path d="M80.5632 48.8933C80.5632 40.1943 87.6151 33.1423 96.3141 33.1423C105.013 33.1423 112.065 40.1943 112.065 48.8933C112.065 57.5923 105.013 64.6442 96.3141 64.6442C87.6151 64.6442 80.5632 57.5923 80.5632 48.8933Z" fill="#DEFF00"/>
<path d="M70.6152 85.3691C70.6152 76.6701 77.6672 69.6182 86.3662 69.6182H106.262C109.511 69.6182 112.529 70.6016 115.037 72.2869C114.212 73.3926 113.723 74.7643 113.723 76.2502V79.5662H110.407C106.744 79.5662 103.775 82.5354 103.775 86.1981C103.775 89.8609 106.744 92.8301 110.407 92.8301H113.723V96.1461C113.723 97.1303 113.937 98.0645 114.322 98.9044C111.964 100.312 109.208 101.12 106.262 101.12H86.3662C77.6672 101.12 70.6152 94.0681 70.6152 85.3691Z" fill="#DEFF00"/>
</svg>
