<svg width="230" height="65" viewBox="0 0 230 65" fill="none" xmlns="http://www.w3.org/2000/svg">
<path d="M93.6641 28.5037C91.8192 28.5037 91.7133 26.938 91.6106 25.4749C90.1829 26.8674 88.2674 27.9454 85.5884 27.9454H84.058C79.2902 27.9454 76.9224 25.369 76.9224 22.305V21.5734C76.9224 17.534 79.8453 15.5159 84.7542 15.5159C89.6631 15.5159 90.8823 15.272 91.4727 13.9502V13.6004C91.4727 12.208 90.6032 10.9535 87.4012 10.9535H85.3478C80.58 10.9535 82.842 13.947 79.4987 13.947C78.3854 13.947 77.5833 13.3566 77.5833 12.6251C77.5833 12.5545 77.6186 12.4871 77.6186 12.4165C78.3501 9.45834 80.9265 7.43701 85.3125 7.43701H87.6097C93.109 7.43701 95.7207 9.69897 95.7207 13.6678V24.9134C95.7207 25.645 96.2789 26.2353 96.2789 26.8642C96.2789 28.0481 94.6073 28.5005 93.6673 28.5005L93.6641 28.5037ZM91.4695 16.9116C90.4941 18.0602 88.2674 18.4099 84.9948 18.4099C81.9308 18.4099 81.1671 19.4527 81.1671 21.089V21.6119C81.1671 23.3862 82.9414 24.2236 84.9948 24.2236H86.3167C88.8578 24.2236 90.8406 23.075 91.4695 21.5767V16.9116Z" fill="white"/>
<path d="M113.993 28.1221C112.706 28.1221 111.869 27.3906 111.869 26.5564V15.7663C111.869 12.6349 109.989 11.4157 108.144 11.4157H107.586C104.628 11.4157 103.094 13.19 103.094 15.2113V26.5596C103.094 27.4291 102.26 28.1253 101.005 28.1253C99.7507 28.1253 98.9165 27.4291 98.9165 26.5596V8.73662C98.9165 7.86713 99.7507 7.1709 101.005 7.1709C102.26 7.1709 103.094 7.86713 103.094 8.73662V10.1997C104.243 8.4607 106.017 7.41474 108.349 7.41474H108.975C112.527 7.41474 116.111 9.6414 116.111 14.8648V26.5628C116.111 27.397 115.276 28.1285 113.987 28.1285L113.993 28.1221Z" fill="white"/>
<path d="M128.094 28.26H127.712C122.457 28.26 118.697 24.8494 118.697 18.1983V17.3962C118.697 11.1301 122.248 7.26709 127.712 7.26709H128.094C133.282 7.26709 137.11 10.7835 137.11 17.3962V18.1983C137.11 24.9874 133.247 28.26 128.094 28.26ZM132.791 17.47C132.791 12.8049 130.703 11.1333 128.056 11.1333H127.741C124.921 11.1333 123.041 12.8402 123.041 17.47V18.1662C123.041 22.3436 125.129 24.1885 127.741 24.1885H128.056C130.526 24.1885 132.791 22.4816 132.791 18.1662V17.47Z" fill="white"/>
<path d="M151.59 11.0274H147.03V20.6367C147.03 23.4216 147.553 24.1532 149.815 24.1532H150.441C151.173 24.1532 151.763 24.8847 151.763 25.9627C151.763 27.0408 151.173 27.8076 150.441 27.8076H148.699C144.278 27.8076 142.782 25.613 142.782 20.81V11.0274H139.927C139.231 11.0274 138.64 10.3312 138.64 9.2852C138.64 8.23925 139.231 7.57831 139.927 7.57831H142.782V3.53887C142.782 2.70467 143.617 1.97314 144.906 1.97314C146.196 1.97314 147.03 2.70467 147.03 3.53887V7.57831H151.59C152.286 7.57831 152.876 8.27454 152.876 9.2852C152.876 10.2959 152.286 11.0274 151.59 11.0274Z" fill="white"/>
<path d="M171.957 28.5037C170.112 28.5037 170.006 26.938 169.903 25.4749C168.476 26.8674 166.56 27.9454 163.881 27.9454H162.351C157.583 27.9454 155.215 25.369 155.215 22.305V21.5734C155.215 17.534 158.138 15.5159 163.047 15.5159C167.956 15.5159 169.175 15.272 169.765 13.9502V13.6004C169.765 12.208 168.896 10.9535 165.694 10.9535H163.64C158.873 10.9535 161.135 13.947 157.791 13.947C156.678 13.947 155.876 13.3566 155.876 12.6251C155.876 12.5545 155.911 12.4871 155.911 12.4165C156.643 9.45834 159.219 7.43701 163.605 7.43701H165.902C171.402 7.43701 174.013 9.69897 174.013 13.6678V24.9134C174.013 25.645 174.572 26.2353 174.572 26.8642C174.572 28.0481 172.9 28.5005 171.96 28.5005L171.957 28.5037ZM169.762 16.9116C168.787 18.0602 166.56 18.4099 163.288 18.4099C160.223 18.4099 159.46 19.4527 159.46 21.089V21.6119C159.46 23.3862 161.234 24.2236 163.288 24.2236H164.609C167.151 24.2236 169.133 23.075 169.762 21.5767V16.9116Z" fill="white"/>
<path d="M89.3811 43.5676H88.0592C84.7513 43.5676 82.5599 45.5183 82.0017 47.9888V58.1179C82.0017 58.9874 81.1322 59.7189 79.8424 59.7189C78.5526 59.7189 77.6831 58.9874 77.6831 58.1179V40.3655C77.6831 39.5313 78.4852 38.8672 79.7365 38.8672C80.9878 38.8672 81.7546 39.5281 81.7546 40.3655V43.2563C82.7974 40.9944 85.0625 39.1848 88.2999 39.1848H89.3779C90.2827 39.1848 91.0142 40.0543 91.0142 41.3794C91.0142 42.7045 90.2827 43.574 89.3779 43.574L89.3811 43.5676Z" fill="white"/>
<path d="M108.25 50.4272H96.6226V50.9149C96.6226 54.0143 98.4675 56.0324 101.182 56.0324H102.087C106.37 56.0324 105.289 52.8304 108.561 52.8304C109.675 52.8304 110.477 53.456 110.477 54.1523C110.477 54.2902 110.441 54.3961 110.406 54.5341C109.395 57.1457 106.543 59.6868 102.157 59.6868H101.079C95.9617 59.6868 92.3425 55.718 92.3425 50.4978V48.4444C92.3425 43.0831 95.5798 39.0469 101.079 39.0469H102.055C107.101 39.0469 110.339 42.2489 110.826 47.8188V48.0273C110.826 49.3845 109.642 50.4305 108.25 50.4305V50.4272ZM106.44 46.9814C106.091 44.1611 104.49 42.5601 101.949 42.5601H101.182C98.4675 42.5601 96.69 44.5782 96.6226 47.7482H105.744C106.126 47.7482 106.44 47.4691 106.44 47.0873V46.9814Z" fill="white"/>
<path d="M122.835 59.7892H121.164C116.569 59.7892 113.82 57.5273 113.261 54.1841V54.0108C113.261 53.1766 114.131 52.5477 115.385 52.5477C118.831 52.5477 116.431 56.2375 121.443 56.2375H122.662C125.9 56.2375 126.734 54.6364 126.734 53.7317V53.5231C126.734 51.6783 125.9 50.8088 122.592 50.8088H121.372C116.464 50.8088 113.505 48.4762 113.505 45.2036V44.8571C113.505 41.6903 116.011 38.8701 121.443 38.8701H122.941C127.189 38.8701 129.904 40.9235 130.494 43.9523C130.529 44.0229 130.529 44.1256 130.529 44.1961C130.529 44.963 129.625 45.5886 128.405 45.5886C125.239 45.5886 126.978 42.4892 122.698 42.4892H121.895C118.658 42.4892 117.856 43.4646 117.856 44.8924V45.1362C117.856 46.5287 118.899 47.1896 121.443 47.1896H122.941C128.441 47.1896 131.158 49.6601 131.158 53.2472V53.6643C131.158 57.0075 127.921 59.7924 122.839 59.7924L122.835 59.7892Z" fill="white"/>
<path d="M149.293 50.4272H137.665V50.9149C137.665 54.0143 139.51 56.0324 142.224 56.0324H143.129C147.412 56.0324 146.331 52.8304 149.604 52.8304C150.717 52.8304 151.519 53.456 151.519 54.1523C151.519 54.2902 151.484 54.3961 151.449 54.5341C150.438 57.1457 147.586 59.6868 143.2 59.6868H142.122C137.004 59.6868 133.385 55.718 133.385 50.4978V48.4444C133.385 43.0831 136.622 39.0469 142.122 39.0469H143.097C148.144 39.0469 151.381 42.2489 151.869 47.8188V48.0273C151.869 49.3845 150.685 50.4305 149.293 50.4305V50.4272ZM147.483 46.9814C147.133 44.1611 145.532 42.5601 142.991 42.5601H142.224C139.51 42.5601 137.732 44.5782 137.665 47.7482H146.787C147.169 47.7482 147.483 47.4691 147.483 47.0873V46.9814Z" fill="white"/>
<path d="M166.49 43.5676H165.168C161.86 43.5676 159.669 45.5183 159.11 47.9888V58.1179C159.11 58.9874 158.241 59.7189 156.951 59.7189C155.661 59.7189 154.792 58.9874 154.792 58.1179V40.3655C154.792 39.5313 155.594 38.8672 156.845 38.8672C158.096 38.8672 158.863 39.5281 158.863 40.3655V43.2563C159.906 40.9944 162.171 39.1848 165.409 39.1848H166.487C167.391 39.1848 168.123 40.0543 168.123 41.3794C168.123 42.7045 167.391 43.574 166.487 43.574L166.49 43.5676Z" fill="white"/>
<path d="M187.621 40.7503L181.46 58.2588C181.146 59.1989 180.068 59.7571 178.605 59.7571C177.142 59.7571 176.028 59.1989 175.714 58.2588L169.554 40.7503C169.518 40.6123 169.483 40.5064 169.483 40.3685C169.483 39.6016 170.179 38.8701 171.399 38.8701C172.685 38.8701 173.417 39.3931 173.696 40.2273L178.361 54.2546C178.432 54.4632 178.534 54.5691 178.605 54.5691C178.711 54.5691 178.778 54.4632 178.849 54.2546L183.478 40.2273C183.758 39.3931 184.454 38.8701 185.776 38.8701C186.889 38.8701 187.691 39.6722 187.691 40.4006C187.691 40.5385 187.656 40.6444 187.621 40.7471V40.7503Z" fill="white"/>
<path d="M206.489 60.1038C204.645 60.1038 204.539 58.5381 204.436 57.075C203.008 58.4675 201.093 59.5455 198.414 59.5455H196.883C192.116 59.5455 189.748 56.9691 189.748 53.9051V53.1735C189.748 49.1341 192.671 47.116 197.58 47.116C202.489 47.116 203.708 46.8721 204.298 45.5503V45.2005C204.298 43.8081 203.429 42.5536 200.227 42.5536H198.173C193.405 42.5536 195.667 45.5471 192.324 45.5471C191.211 45.5471 190.409 44.9567 190.409 44.2252C190.409 44.1546 190.444 44.0872 190.444 44.0166C191.176 41.0584 193.752 39.0371 198.138 39.0371H200.435C205.934 39.0371 208.546 41.2991 208.546 45.2679V56.5135C208.546 57.2451 209.104 57.8354 209.104 58.4643C209.104 59.6482 207.433 60.1006 206.493 60.1006L206.489 60.1038ZM204.295 48.5117C203.32 49.6603 201.093 50.01 197.82 50.01C194.756 50.01 193.993 51.0528 193.993 52.6891V53.212C193.993 54.9863 195.767 55.8237 197.82 55.8237H199.142C201.683 55.8237 203.666 54.6751 204.295 53.1768V48.5117Z" fill="white"/>
<path d="M220.796 59.7892H219.124C214.53 59.7892 211.78 57.5273 211.222 54.1841V54.0108C211.222 53.1766 212.091 52.5477 213.346 52.5477C216.792 52.5477 214.392 56.2375 219.403 56.2375H220.623C223.86 56.2375 224.694 54.6364 224.694 53.7317V53.5231C224.694 51.6783 223.86 50.8088 220.552 50.8088H219.333C214.424 50.8088 211.466 48.4762 211.466 45.2036V44.8571C211.466 41.6903 213.972 38.8701 219.403 38.8701H220.902C225.15 38.8701 227.864 40.9235 228.455 43.9523C228.49 44.0229 228.49 44.1256 228.49 44.1961C228.49 44.963 227.585 45.5886 226.366 45.5886C223.199 45.5886 224.938 42.4892 220.658 42.4892H219.856C216.619 42.4892 215.816 43.4646 215.816 44.8924V45.1362C215.816 46.5287 216.859 47.1896 219.403 47.1896H220.902C226.401 47.1896 229.119 49.6601 229.119 53.2472V53.6643C229.119 57.0075 225.881 59.7924 220.799 59.7924L220.796 59.7892Z" fill="white"/>
<path d="M50.9117 4.51429H45.0916V2.11437C45.0916 0.946497 44.1451 0 42.9772 0C41.8093 0 40.8628 0.946497 40.8628 2.11437V4.51429H23.6655V2.11437C23.6655 0.946497 22.719 0 21.5512 0C20.3833 0 19.4368 0.946497 19.4368 2.11437V4.51429H13.6167C6.09605 4.51429 0 10.6103 0 18.131V21.4196C0 22.5907 0.946492 23.5372 2.11758 23.5372C3.28866 23.5372 4.23515 22.5907 4.23515 21.4196V18.131C4.23515 12.9493 8.43502 8.74945 13.6167 8.74945H19.4368V12.6092C19.4368 13.7771 20.3833 14.7236 21.5512 14.7236C22.719 14.7236 23.6655 13.7771 23.6655 12.6092V8.74945H40.8628V12.6092C40.8628 13.7771 41.8093 14.7236 42.9772 14.7236C44.1451 14.7236 45.0916 13.7771 45.0916 12.6092V8.74945H50.9117C56.0933 8.74945 60.2932 12.9493 60.2932 18.131V51.3833C60.2932 56.565 56.0933 60.7649 50.9117 60.7649H13.6327C8.45106 60.7649 4.2512 56.565 4.2512 51.3833V45.3675C4.2512 40.1858 8.45106 35.986 13.6327 35.986H39.5602C40.7313 35.986 41.6778 35.0395 41.6778 33.8684C41.6778 32.6973 40.7313 31.7508 39.5602 31.7508H13.6327C6.1121 31.7508 0.0160408 37.8469 0.0160408 45.3675V51.3833C0.0160408 58.9039 6.1121 65 13.6327 65H50.9117C58.4323 65 64.5284 58.9039 64.5284 51.3833V18.131C64.5284 10.6103 58.4323 4.51429 50.9117 4.51429Z" fill="white"/>
<path d="M20.2967 51.9058C22.2579 51.0934 23.1893 48.8449 22.3769 46.8837C21.5645 44.9225 19.3161 43.9911 17.3548 44.8035C15.3936 45.6159 14.4623 47.8643 15.2746 49.8256C16.087 51.7868 18.3355 52.7181 20.2967 51.9058Z" fill="white"/>
<path d="M33.5388 51.9823C35.542 51.2796 36.5963 49.0861 35.8936 47.0829C35.1909 45.0798 32.9974 44.0255 30.9942 44.7282C28.9911 45.4309 27.9368 47.6244 28.6395 49.6275C29.3422 51.6307 31.5357 52.6849 33.5388 51.9823Z" fill="white"/>
<path d="M47.1781 51.9058C49.1393 51.0934 50.0706 48.8449 49.2583 46.8837C48.4459 44.9225 46.1974 43.9911 44.2362 44.8035C42.275 45.6159 41.3436 47.8643 42.156 49.8256C42.9684 51.7868 45.2168 52.7181 47.1781 51.9058Z" fill="white"/>
</svg>
